<svg width="16" height="16" viewBox="0 0 16 16" fill="none" xmlns="http://www.w3.org/2000/svg">
<path d="M6.66699 5.33325H13.3337C14.069 5.33325 14.667 5.93125 14.667 6.66659V13.3333C14.667 14.0686 14.069 14.6666 13.3337 14.6666H6.66699C5.93166 14.6666 5.33366 14.0686 5.33366 13.3333V6.66659C5.33366 5.93125 5.93166 5.33325 6.66699 5.33325Z" fill="#DDDDDD"/>
<path d="M2.66699 1.33325H9.33366C9.68728 1.33325 10.0264 1.47373 10.2765 1.72378C10.5265 1.97382 10.667 2.31296 10.667 2.66659V3.99992H5.33366C4.98004 3.99992 4.6409 4.14039 4.39085 4.39044C4.1408 4.64049 4.00033 4.97963 4.00033 5.33325V10.6666H2.66699C2.31337 10.6666 1.97423 10.5261 1.72418 10.2761C1.47414 10.026 1.33366 9.68687 1.33366 9.33325V2.66659C1.33366 2.31296 1.47414 1.97382 1.72418 1.72378C1.97423 1.47373 2.31337 1.33325 2.66699 1.33325Z" fill="#DDDDDD"/>
</svg>
