<svg width="57" height="56" viewBox="0 0 57 56" fill="none" xmlns="http://www.w3.org/2000/svg">
<path d="M52.5 28C52.5 14.7452 41.7548 4 28.5 4C15.2452 4 4.5 14.7452 4.5 28C4.5 41.2548 15.2452 52 28.5 52C41.7548 52 52.5 41.2548 52.5 28Z" fill="#5865F2"/>
<path d="M37.6768 19.62C36.0375 18.8532 34.3032 18.3084 32.5198 18C32.2968 18.402 32.0378 18.942 31.8588 19.372C29.9645 19.0828 28.0372 19.0828 26.1428 19.372C25.9628 18.942 25.6978 18.402 25.4738 18C23.6887 18.3088 21.9529 18.8554 20.3128 19.625C17.0488 24.557 16.1628 29.367 16.6058 34.109C18.7708 35.726 20.8688 36.708 22.9318 37.35C23.4418 36.65 23.8948 35.904 24.2868 35.12C23.546 34.8375 22.8318 34.4894 22.1528 34.08C22.3328 33.948 22.5068 33.81 22.6758 33.667C26.7898 35.591 31.2588 35.591 35.3238 33.667C35.4938 33.81 35.6698 33.948 35.8468 34.081C35.1667 34.4908 34.4511 34.8389 33.7088 35.121C34.1008 35.904 34.5528 36.651 35.0638 37.352C37.3461 36.6466 39.4881 35.5492 41.3938 34.109C41.9128 28.612 40.5068 23.846 37.6768 19.621V19.62ZM24.8468 31.193C23.6118 31.193 22.5988 30.04 22.5988 28.636C22.5988 27.232 23.5908 26.078 24.8468 26.078C26.1038 26.078 27.1168 27.23 27.0948 28.636C27.0968 30.04 26.1038 31.193 24.8468 31.193ZM33.1528 31.193C31.9178 31.193 30.9048 30.04 30.9048 28.636C30.9048 27.232 31.8958 26.078 33.1528 26.078C34.4088 26.078 35.4218 27.23 35.3998 28.636C35.3998 30.04 34.4098 31.193 33.1528 31.193Z" fill="white"/>
</svg>
