<svg width="20" height="20" viewBox="0 0 20 20" fill="none" xmlns="http://www.w3.org/2000/svg">
<path d="M14.8436 8.53071C15.2945 8.98776 15.5199 9.21628 15.5199 9.6265C15.5199 10.0367 15.2945 10.2652 14.8436 10.7223C13.7906 11.7898 11.9697 13.253 9.9 13.253C7.83026 13.253 6.00944 11.7898 4.95637 10.7223C4.50553 10.2652 4.28011 10.0367 4.28011 9.6265C4.28011 9.21628 4.50553 8.98776 4.95637 8.53071C6.00944 7.46315 7.83026 6 9.9 6C11.9697 6 13.7906 7.46315 14.8436 8.53071Z" stroke="white" stroke-width="0.5"/>
<path d="M11.6169 9.62673C11.6169 10.4714 10.8679 11.19 9.90026 11.19C8.93267 11.19 8.18359 10.4714 8.18359 9.62673C8.18359 8.7821 8.93267 8.06348 9.90026 8.06348C10.8679 8.06348 11.6169 8.7821 11.6169 9.62673Z" stroke="white" stroke-width="0.5"/>
</svg>
