<svg width="49" height="48" viewBox="0 0 49 48" fill="none" xmlns="http://www.w3.org/2000/svg">
<path d="M48.25 24C48.25 10.8832 37.6168 0.25 24.5 0.25C11.3832 0.25 0.75 10.8832 0.75 24C0.75 37.1168 11.3832 47.75 24.5 47.75C37.6168 47.75 48.25 37.1168 48.25 24Z" fill="white"/>
<path d="M48.25 24C48.25 10.8832 37.6168 0.25 24.5 0.25C11.3832 0.25 0.75 10.8832 0.75 24C0.75 37.1168 11.3832 47.75 24.5 47.75C37.6168 47.75 48.25 37.1168 48.25 24Z" stroke="#C3CBD1" stroke-width="0.5"/>
<path d="M24.5001 16.845C26.6911 16.845 28.1691 17.791 29.0111 18.581L32.3041 15.367C30.2821 13.487 27.6501 12.333 24.5001 12.333C19.9371 12.333 15.9971 14.952 14.0781 18.763L17.8501 21.693C18.7971 18.88 21.4151 16.845 24.5001 16.845Z" fill="#EA4335"/>
<path d="M35.7 24.26C35.7 23.3 35.622 22.6 35.454 21.874H24.5V26.204H30.93C30.8 27.28 30.1 28.9 28.544 29.989L32.226 32.841C34.43 30.806 35.7 27.812 35.7 24.26Z" fill="#4285F4"/>
<path d="M17.863 26.3079C17.608 25.5651 17.4766 24.7854 17.474 23.9999C17.474 23.1959 17.617 22.4189 17.85 21.6929L14.078 18.7629C13.2608 20.3878 12.8345 22.1811 12.833 23.9999C12.833 25.8799 13.287 27.6559 14.078 29.2369L17.863 26.3069V26.3079Z" fill="#FBBC05"/>
<path d="M24.4998 35.667C27.6498 35.667 30.2948 34.63 32.2258 32.841L28.5448 29.989C27.5588 30.676 26.2368 31.156 24.4998 31.156C21.4148 31.156 18.7958 29.121 17.8628 26.308L14.0908 29.238C16.0088 33.048 19.9358 35.667 24.4998 35.667Z" fill="#34A853"/>
</svg>
