<svg width="25" height="25" viewBox="0 0 25 25" fill="none" xmlns="http://www.w3.org/2000/svg">
<path d="M20.0762 4.75879C17.9897 2.72754 15.2285 1.5625 12.5 1.5625C9.77148 1.5625 7.01025 2.72754 4.92383 4.75879C2.75635 6.86865 1.5625 9.61914 1.5625 12.5C1.5625 13.8022 1.98975 15.4829 3.16797 18.6304C4.34619 21.7778 6.68945 23.0957 7.6792 23.311C7.96289 23.373 8.29541 23.4375 8.59375 23.4375C9.10783 23.4379 9.61299 23.3032 10.0586 23.0469L10.7422 22.6562C11.478 22.2256 11.6929 21.2827 11.2695 20.5396L7.02539 13.0898C6.92426 12.9116 6.78876 12.7552 6.62675 12.6296C6.46474 12.5041 6.27943 12.412 6.08156 12.3586C5.88369 12.3051 5.67719 12.2915 5.47402 12.3185C5.27084 12.3455 5.07504 12.4125 4.89795 12.5156L4.22949 12.9063C3.97258 13.0568 3.74173 13.2479 3.5459 13.4722C3.52159 13.5007 3.4896 13.5216 3.45372 13.5325C3.41785 13.5433 3.37962 13.5436 3.34359 13.5333C3.30756 13.523 3.27525 13.5025 3.25052 13.4744C3.22578 13.4462 3.20967 13.4116 3.2041 13.3745C3.15495 13.0855 3.1285 12.7931 3.125 12.5C3.125 10.0435 4.15039 7.69141 6.01367 5.87842C7.8125 4.12842 10.1753 3.125 12.5 3.125C14.8247 3.125 17.1875 4.12842 18.9863 5.87842C20.8496 7.69141 21.875 10.0435 21.875 12.5C21.8705 12.7932 21.8431 13.0856 21.793 13.3745C21.7874 13.4116 21.7713 13.4462 21.7466 13.4744C21.7218 13.5025 21.6895 13.523 21.6535 13.5333C21.6175 13.5436 21.5792 13.5433 21.5433 13.5325C21.5075 13.5216 21.4755 13.5007 21.4512 13.4722C21.2553 13.2479 21.0245 13.0568 20.7676 12.9063L20.0991 12.5156C19.922 12.4125 19.7262 12.3455 19.5231 12.3185C19.3199 12.2915 19.1134 12.3051 18.9155 12.3586C18.7176 12.412 18.5323 12.5041 18.3703 12.6296C18.2083 12.7552 18.0728 12.9116 17.9717 13.0898L13.7305 20.5396C13.3071 21.2827 13.522 22.2256 14.2578 22.6562L14.9414 23.0469C15.387 23.3032 15.8922 23.4379 16.4062 23.4375C16.7046 23.4375 17.0371 23.373 17.3208 23.311C18.3105 23.0957 20.6543 21.7773 21.832 18.6304C23.0098 15.4834 23.4375 13.8022 23.4375 12.5C23.4375 9.61914 22.2437 6.86865 20.0762 4.75879Z" fill="white"/>
</svg>
