<svg width="33" height="33" viewBox="0 0 33 33" fill="none" xmlns="http://www.w3.org/2000/svg">
<path d="M8.81153 3.26611C9.50562 3.88308 9.93323 4.59824 10.4027 5.38766C10.4864 5.52675 10.5701 5.66584 10.6564 5.80915C10.8346 6.10547 11.0123 6.40205 11.1897 6.69887C11.462 7.15321 11.7369 7.60589 12.0125 8.05824C15.3604 13.5654 18.9473 20.2839 17.4239 26.9499C17.1794 27.8974 16.8739 28.7437 16.4137 29.6087C15.7824 29.3459 15.4333 28.9956 14.9883 28.4816C14.7808 28.2454 14.7808 28.2454 14.5691 28.0044C14.3445 27.7483 14.3445 27.7483 14.1154 27.4871C11.8238 24.7801 11.8238 24.7801 9.05531 22.6287C8.381 21.9145 8.40203 21.0777 8.29219 20.128C7.78868 16.4805 6.79105 13.7358 4.21484 11.0451C4.74523 10.8683 4.74523 10.8683 5.3212 11.1556C5.55045 11.2933 5.77829 11.4335 6.0049 11.5755C6.12412 11.649 6.24334 11.7225 6.36617 11.7982C9.04742 13.4738 10.9571 15.4543 12.3474 18.2937C12.5255 13.1717 11.1357 8.70175 8.92893 4.10041C8.81153 3.7965 8.81153 3.7965 8.81153 3.26611Z" fill="white"/>
<path d="M28.2585 10.6914C28.3752 10.7497 28.4919 10.8081 28.6121 10.8682C28.5264 10.9436 28.4407 11.0191 28.3524 11.0968C25.7831 13.4932 24.9264 16.568 24.3331 19.9055C24.3062 20.0527 24.2793 20.1998 24.2516 20.3515C24.175 20.8136 24.175 20.8136 24.1998 21.4663C24.0761 22.5087 23.1569 23.1909 22.4353 23.8761C22.1686 24.1293 21.9065 24.3867 21.6449 24.6451C20.3597 25.8958 20.3597 25.8958 19.9491 25.8958C19.6678 21.4679 21.766 16.7215 24.6454 13.4382C25.6779 12.3338 26.9338 11.414 28.2585 10.6914Z" fill="white"/>
<path d="M23.662 3.26611C23.8878 3.94377 23.7462 4.12746 23.4679 4.7744C23.3849 4.97085 23.302 5.1673 23.2165 5.3697C23.0815 5.68489 23.0815 5.68489 22.9437 6.00644C21.7093 8.95555 20.7793 11.7573 20.3514 14.9299C20.1421 16.4737 19.7694 17.8878 19.2421 19.3545C18.8709 18.9833 18.7953 18.8015 18.6405 18.3138C18.5741 18.1085 18.5741 18.1085 18.5062 17.8991C18.461 17.7558 18.4157 17.6126 18.3691 17.465C17.9987 16.2951 17.9987 16.2951 17.5287 15.1632C17.2288 14.4087 17.1801 13.8378 17.464 13.0686C17.5416 12.9207 17.6193 12.7728 17.6993 12.6204C17.7859 12.4539 17.8725 12.2874 17.9618 12.1158C18.0561 11.9412 18.1504 11.7665 18.2476 11.5866C18.3438 11.4055 18.4401 11.2245 18.5392 11.038C19.2772 9.67009 20.0781 8.36785 20.976 7.10019C21.1931 6.79313 21.4065 6.48375 21.6191 6.17357C22.2894 5.19682 22.9692 4.22705 23.662 3.26611Z" fill="white"/>
</svg>
