<svg width="57" height="56" viewBox="0 0 57 56" fill="none" xmlns="http://www.w3.org/2000/svg">
<rect x="4" y="3.5" width="49" height="49" rx="24.5" fill="#FEE500"/>
<rect x="4" y="3.5" width="49" height="49" rx="24.5" stroke="#FEE500"/>
<g clip-path="url(#clip0_715_2361)">
<path d="M28.5 17C21.8709 17 16.5 21.2363 16.5 26.4662C16.5 29.8681 18.7768 32.8529 22.194 34.5216C21.9431 35.4546 21.2856 37.9083 21.1525 38.4317C20.9891 39.084 21.392 39.0726 21.6543 38.8982C21.8595 38.7617 24.9422 36.6682 26.2726 35.7655C26.9948 35.8717 27.7398 35.9286 28.5 35.9286C35.1291 35.9286 40.5 31.6923 40.5 26.4624C40.5 21.2325 35.1291 17 28.5 17Z" fill="#181600"/>
</g>
<defs>
<clipPath id="clip0_715_2361">
<rect width="24" height="22" fill="white" transform="translate(16.5 17)"/>
</clipPath>
</defs>
</svg>
