<svg width="105" height="28" viewBox="0 0 105 28" fill="none" xmlns="http://www.w3.org/2000/svg">
<g clip-path="url(#clip0_715_2291)">
<path d="M13.9555 28C19.4935 28 23.9829 23.5171 23.9829 17.9871C23.9829 12.4572 19.4935 7.97424 13.9555 7.97424C8.41761 7.97424 3.92822 12.4572 3.92822 17.9871C3.92822 23.5171 8.41761 28 13.9555 28Z" fill="#00FFD0"/>
<path d="M7.09459 14.1688C11.0128 14.1688 14.1892 10.997 14.1892 7.08439C14.1892 3.17179 11.0128 0 7.09459 0C3.17635 0 0 3.17179 0 7.08439C0 10.997 3.17635 14.1688 7.09459 14.1688Z" fill="#00FFD0"/>
<path d="M20.9066 14.1688C24.8248 14.1688 28.0012 10.997 28.0012 7.08439C28.0012 3.17179 24.8248 0 20.9066 0C16.9884 0 13.812 3.17179 13.812 7.08439C13.812 10.997 16.9884 14.1688 20.9066 14.1688Z" fill="#00FFD0"/>
<path d="M10.8843 25.6L13.5658 17.6919L9.43604 18.1802L16.8718 7.06274L14.4342 14.9709L18.565 14.4826L10.8843 25.6Z" fill="white"/>
</g>
<g clip-path="url(#clip1_715_2291)">
<path d="M41.03 6.35995L43.44 3.94995H39.78L37 6.35995V9.81995H39.67V23.69H44.17V9.81995H46.85V6.35995H41.03Z" fill="white"/>
<path d="M52.3899 6.35999H47.8799V23.69H52.3899V6.35999Z" fill="white"/>
<path d="M61.1999 14.45L60.5599 10.04C60.3799 8.62999 60.1999 7.39999 60.0199 6.35999H54.1899V23.69H58.1299V12.26L59.7899 23.69H62.5799L64.1499 11.99V23.69H68.0999V6.35999H62.2399L61.1999 14.45Z" fill="white"/>
<path d="M79.28 7.80998C78.83 7.19998 78.24 6.74998 77.5 6.43998C76.76 6.13998 75.93 5.97998 75 5.97998C74.02 5.97998 73.17 6.13998 72.43 6.45998C71.69 6.77998 71.11 7.23998 70.68 7.83998C70.25 8.43998 69.99 9.09998 69.91 9.82998C69.83 10.55 69.79 11.79 69.79 13.53V16.5C69.79 18.28 69.83 19.53 69.92 20.25C70.01 20.96 70.27 21.62 70.72 22.23C71.17 22.84 71.76 23.29 72.5 23.6C73.24 23.9 74.07 24.06 75 24.06C75.98 24.06 76.83 23.9 77.57 23.58C78.31 23.26 78.89 22.8 79.32 22.2C79.75 21.6 80.01 20.94 80.09 20.21C80.17 19.49 80.21 18.25 80.21 16.51V13.54C80.21 11.76 80.17 10.51 80.08 9.78998C79.99 9.07998 79.73 8.41998 79.28 7.80998ZM75.7 18.77C75.7 19.79 75.66 20.44 75.57 20.71C75.48 20.98 75.29 21.12 74.98 21.12C74.67 21.12 74.49 21 74.41 20.77C74.33 20.54 74.29 19.91 74.29 18.91V10.81C74.29 9.91998 74.35 9.37998 74.48 9.19998C74.6 9.01998 74.79 8.92998 75.02 8.92998C75.3 8.92998 75.48 9.03998 75.57 9.26998C75.66 9.48998 75.7 10.01 75.7 10.82V18.79V18.77Z" fill="white"/>
<path d="M90.1398 6.81C89.2698 6.27 88.1698 6 86.8498 6C85.5298 6 84.4098 6.31 83.5698 6.94C82.7198 7.56 82.2098 8.25 82.0298 9C81.8498 9.75 81.7598 10.95 81.7598 12.61V17.76C81.7598 18.95 81.7998 19.85 81.8898 20.44C81.9798 21.04 82.1898 21.61 82.5298 22.15C82.8698 22.69 83.3798 23.15 84.0398 23.52C84.6998 23.89 85.4098 24.07 86.1698 24.07C86.8098 24.07 87.3598 23.94 87.8298 23.67C88.2998 23.4 88.6798 23 88.9898 22.47L89.4098 23.71H92.2398V14.41H86.9598V17.04H87.8698V19.1C87.8698 19.91 87.8098 20.45 87.6898 20.73C87.5698 21.01 87.3498 21.15 87.0198 21.15C86.7198 21.15 86.5198 21.03 86.4198 20.78C86.3198 20.53 86.2698 20.02 86.2698 19.24V10.89C86.2698 10 86.3198 9.46 86.4198 9.24C86.5198 9.03 86.7098 8.92 86.9898 8.92C87.3098 8.92 87.5098 9.04 87.5998 9.29C87.6898 9.54 87.7298 10.16 87.7298 11.15V12.72H92.2398V11.97C92.2398 10.55 92.1098 9.47 91.8398 8.72C91.5798 7.97 91.0098 7.33 90.1398 6.79V6.81Z" fill="white"/>
<path d="M102.23 6.80976C101.36 6.26976 100.26 5.99976 98.9401 5.99976C97.6201 5.99976 96.5001 6.30976 95.6601 6.93976C94.8101 7.55976 94.3001 8.24976 94.1201 8.99976C93.9401 9.74976 93.8501 10.9498 93.8501 12.6098V17.7598C93.8501 18.9498 93.8901 19.8498 93.9801 20.4398C94.0701 21.0398 94.2801 21.6098 94.6201 22.1498C94.9601 22.6898 95.4701 23.1498 96.1301 23.5198C96.7901 23.8898 97.5001 24.0698 98.2601 24.0698C98.9001 24.0698 99.4501 23.9398 99.9201 23.6698C100.39 23.3998 100.77 22.9998 101.08 22.4698L101.5 23.7098H104.33V14.4098H99.0501V17.0398H99.9601V19.0998C99.9601 19.9098 99.9001 20.4498 99.7801 20.7298C99.6601 21.0098 99.4401 21.1498 99.1101 21.1498C98.8101 21.1498 98.6101 21.0298 98.5101 20.7798C98.4101 20.5298 98.3601 20.0198 98.3601 19.2398V10.8898C98.3601 9.99976 98.4101 9.45976 98.5101 9.23976C98.6101 9.02976 98.8001 8.91976 99.0801 8.91976C99.4001 8.91976 99.6001 9.03976 99.6901 9.28976C99.7801 9.53976 99.8201 10.1598 99.8201 11.1498V12.7198H104.33V11.9698C104.33 10.5498 104.2 9.46976 103.93 8.71976C103.67 7.96976 103.1 7.32976 102.23 6.78976V6.80976Z" fill="white"/>
</g>
<defs>
<clipPath id="clip0_715_2291">
<rect width="28" height="28" fill="white"/>
</clipPath>
<clipPath id="clip1_715_2291">
<rect width="67.23" height="20.1" fill="white" transform="translate(37 3.94995)"/>
</clipPath>
</defs>
</svg>
