<svg width="749" height="198" viewBox="0 0 749 198" fill="none" xmlns="http://www.w3.org/2000/svg">
<g clip-path="url(#clip0_787_2334)">
<path d="M12.7147 159.093L35.0179 69.2748H0.507812L8.66475 36.0767H111.083L107.732 49.5403C107.204 51.6306 106.505 53.8197 105.65 56.091C104.794 58.3624 103.81 60.4856 102.698 62.4443C101.585 64.4029 100.302 66.0488 98.8617 67.3327C97.4214 68.6165 95.9098 69.2748 94.3126 69.2748H68.102L45.7275 159.093" fill="#00FFD0"/>
<path d="M121.535 36.0767H168.195L137.678 159.093H104.608L129.222 59.8602L121.55 36.0767H121.535Z" fill="#00FFD0"/>
<path d="M186.435 59.8602L178.762 36.0767H231.982L245.886 91.4124L287.427 36.0767H327.056L296.539 159.093H263.469L279.284 95.4614L231.184 159.093H227.191L210.734 95.4614L194.919 159.093H161.85L186.463 59.8602H186.435Z" fill="#00FFD0"/>
<path d="M442.908 125.895H475.977L467.664 159.093H434.58L442.893 125.895H442.908Z" fill="#00FFD0"/>
<path d="M571.237 112.793L563.565 88.9931H610.225L592.813 159.076H501.889C499.008 159.076 496.399 158.583 494.06 157.595C491.721 156.624 489.796 155.192 488.313 153.365C486.83 151.522 485.803 149.267 485.275 146.633C484.748 143.983 484.905 141.004 485.76 137.696L505.739 57.4737C506.595 54.149 507.892 51.1699 509.661 48.5364C511.415 45.8865 513.497 43.648 515.892 41.8046C518.288 39.9612 520.926 38.5457 523.807 37.5581C526.688 36.5706 529.554 36.0933 532.435 36.0933H623.359L620.008 49.5569C619.48 51.6472 618.781 53.8363 617.925 56.1076C617.07 58.379 616.086 60.5022 614.974 62.4609C613.861 64.436 612.578 66.0654 611.138 67.3493C609.697 68.6331 608.186 69.2914 606.589 69.2914H535.971L521.91 125.911H568.1L571.294 112.81L571.237 112.793Z" fill="#00FFD0"/>
<path d="M696.415 112.793L688.743 88.9931H735.403L717.991 159.076H627.066C624.186 159.076 621.576 158.583 619.238 157.595C616.899 156.624 614.974 155.192 613.491 153.365C612.008 151.522 610.981 149.267 610.453 146.633C609.926 143.983 610.082 141.004 610.938 137.696L630.917 57.4737C631.772 54.149 633.07 51.1699 634.838 48.5364C636.592 45.8865 638.674 43.648 641.07 41.8046C643.466 39.9612 646.104 38.5457 648.985 37.5581C651.865 36.5706 654.732 36.0933 657.612 36.0933H748.536L745.185 49.5569C744.658 51.6472 743.959 53.8363 743.103 56.1076C742.248 58.379 741.264 60.5022 740.151 62.4609C739.039 64.4195 737.756 66.0654 736.315 67.3493C734.875 68.6331 733.363 69.2914 731.766 69.2914H661.149L647.088 125.911H693.277L696.472 112.81L696.415 112.793Z" fill="#00FFD0"/>
<path d="M447.543 48.5198C447.058 45.8699 446.074 43.6314 444.576 41.788C443.093 39.9446 441.14 38.5291 438.744 37.5415C436.348 36.554 433.71 36.0767 430.829 36.0767H409.496L386.95 85.2402L424.156 82.2776L360.683 159.093H400.298C403.179 159.093 406.045 158.599 408.925 157.611C411.806 156.64 414.43 155.208 416.84 153.381C419.236 151.538 421.318 149.283 423.072 146.649C424.826 144 426.124 141.02 426.993 137.712L446.972 57.4901C447.828 54.1653 448.013 51.1862 447.528 48.5527L447.543 48.5198Z" fill="#00FFD0"/>
<path d="M336.098 113.089L399.642 36.0767H361.324C358.444 36.0767 355.577 36.5704 352.697 37.5415C349.816 38.5126 347.192 39.9446 344.782 41.788C342.386 43.6314 340.304 45.8863 338.55 48.5198C336.796 51.1697 335.484 54.1488 334.629 57.4571L314.65 137.679C313.794 141.004 313.637 143.983 314.165 146.617C314.693 149.266 315.719 151.505 317.203 153.348C318.686 155.192 320.611 156.607 322.949 157.578C325.302 158.566 327.912 159.06 330.778 159.06H351.285L374.672 111.345L336.055 113.056L336.098 113.089Z" fill="#00FFD0"/>
<path d="M386.979 85.2402L409.524 36.0766L421.86 9.14941L399.642 36.0766L336.098 113.089L374.715 111.361L351.328 159.093L337.666 186.974L360.711 159.093L424.184 82.2776L386.979 85.2402Z" stroke="#00FFD0" stroke-width="1.87" stroke-miterlimit="10"/>
</g>
<defs>
<clipPath id="clip0_787_2334">
<rect width="748" height="197" fill="white" transform="translate(0.507812 0.0146484)"/>
</clipPath>
</defs>
</svg>
