<svg width="20" height="20" viewBox="0 0 20 20" fill="none" xmlns="http://www.w3.org/2000/svg">
<path d="M16.6665 2.5C17.1085 2.5 17.5325 2.67559 17.845 2.98816C18.1576 3.30072 18.3332 3.72464 18.3332 4.16667V15.8333C18.3332 16.2754 18.1576 16.6993 17.845 17.0118C17.5325 17.3244 17.1085 17.5 16.6665 17.5H3.33317C2.89114 17.5 2.46722 17.3244 2.15466 17.0118C1.8421 16.6993 1.6665 16.2754 1.6665 15.8333V4.16667C1.6665 3.72464 1.8421 3.30072 2.15466 2.98816C2.46722 2.67559 2.89114 2.5 3.33317 2.5H16.6665ZM16.6665 4.16667H3.33317V12.5833L7.49567 8.42167C7.5924 8.32491 7.70725 8.24816 7.83365 8.19579C7.96004 8.14343 8.09552 8.11647 8.23234 8.11647C8.36915 8.11647 8.50463 8.14343 8.63103 8.19579C8.75743 8.24816 8.87227 8.32491 8.969 8.42167L12.3565 11.81L13.3882 10.7783C13.4849 10.6816 13.5997 10.6048 13.7261 10.5525C13.8525 10.5001 13.988 10.4731 14.1248 10.4731C14.2617 10.4731 14.3971 10.5001 14.5235 10.5525C14.6499 10.6048 14.7648 10.6816 14.8615 10.7783L16.6665 12.5842V4.16667ZM12.9165 5.83333C13.248 5.83333 13.566 5.96503 13.8004 6.19945C14.0348 6.43387 14.1665 6.75181 14.1665 7.08333C14.1665 7.41485 14.0348 7.7328 13.8004 7.96722C13.566 8.20164 13.248 8.33333 12.9165 8.33333C12.585 8.33333 12.267 8.20164 12.0326 7.96722C11.7982 7.7328 11.6665 7.41485 11.6665 7.08333C11.6665 6.75181 11.7982 6.43387 12.0326 6.19945C12.267 5.96503 12.585 5.83333 12.9165 5.83333Z" fill="#DDDDDD"/>
</svg>
