<svg width="22" height="22" viewBox="0 0 22 22" fill="none" xmlns="http://www.w3.org/2000/svg">
<path d="M10.0837 3.6665C13.6275 3.6665 16.5003 6.53934 16.5003 10.0832C16.5003 11.6928 15.9072 13.1632 14.9292 14.2907L14.9915 14.342L18.1027 17.4541C18.2814 17.6328 18.2814 17.9225 18.1027 18.1022C17.9432 18.2608 17.6966 18.2791 17.5178 18.1553L17.4537 18.1022L14.3425 14.991L14.2912 14.9287C13.1637 15.9068 11.6933 16.4998 10.0837 16.4998C6.53983 16.4998 3.66699 13.627 3.66699 10.0832C3.66699 6.53934 6.53983 3.6665 10.0837 3.6665ZM10.0837 4.58317C7.04583 4.58317 4.58366 7.04534 4.58366 10.0832C4.58366 13.121 7.04583 15.5832 10.0837 15.5832C13.1215 15.5832 15.5837 13.121 15.5837 10.0832C15.5837 7.04534 13.1215 4.58317 10.0837 4.58317Z" fill="#DDDDDD"/>
</svg>
