<svg width="24" height="24" viewBox="0 0 24 24" fill="none" xmlns="http://www.w3.org/2000/svg">
<path d="M12.5932 23.2579L12.5822 23.2599L12.5112 23.2949L12.4912 23.2989L12.4772 23.2949L12.4062 23.2599C12.3955 23.2566 12.3875 23.2583 12.3822 23.2649L12.3782 23.2749L12.3612 23.7029L12.3662 23.7229L12.3762 23.7359L12.4802 23.8099L12.4952 23.8139L12.5072 23.8099L12.6112 23.7359L12.6232 23.7199L12.6272 23.7029L12.6102 23.2759C12.6075 23.2653 12.6018 23.2593 12.5932 23.2579ZM12.8582 23.1449L12.8452 23.1469L12.6602 23.2399L12.6502 23.2499L12.6472 23.2609L12.6652 23.6909L12.6702 23.7029L12.6782 23.7099L12.8792 23.8029C12.8918 23.8063 12.9015 23.8036 12.9082 23.7949L12.9122 23.7809L12.8782 23.1669C12.8748 23.1549 12.8682 23.1476 12.8582 23.1449ZM12.1432 23.1469C12.1388 23.1443 12.1335 23.1434 12.1285 23.1445C12.1234 23.1456 12.119 23.1487 12.1162 23.1529L12.1102 23.1669L12.0762 23.7809C12.0768 23.7929 12.0825 23.8009 12.0932 23.8049L12.1082 23.8029L12.3092 23.7099L12.3192 23.7019L12.3232 23.6909L12.3402 23.2609L12.3372 23.2489L12.3272 23.2389L12.1432 23.1469Z" fill="white"/>
<path d="M21.4327 4.86101L15.4327 20.361C15.3734 20.5145 15.277 20.651 15.1523 20.7584C15.0275 20.8657 14.8782 20.9407 14.7175 20.9765C14.5569 21.0123 14.3899 21.0079 14.2314 20.9637C14.0728 20.9195 13.9276 20.8368 13.8087 20.723L10.4267 17.488L8.3527 19.561C8.28272 19.6308 8.19364 19.6782 8.0967 19.6974C7.99976 19.7166 7.89932 19.7066 7.80805 19.6687C7.71678 19.6308 7.63879 19.5668 7.58391 19.4846C7.52903 19.4024 7.49973 19.3058 7.4997 19.207V14.688L2.3087 9.72301C2.17991 9.59979 2.08639 9.44438 2.03783 9.27288C1.98927 9.10137 1.98743 8.92001 2.0325 8.74755C2.07758 8.5751 2.16793 8.41783 2.29421 8.29202C2.42048 8.16622 2.57809 8.07645 2.7507 8.03201L20.2507 3.53201C20.4286 3.48644 20.6157 3.49074 20.7913 3.54444C20.9669 3.59815 21.1244 3.69919 21.2464 3.83647C21.3684 3.97376 21.4502 4.14199 21.4829 4.32272C21.5156 4.50345 21.4979 4.68969 21.4317 4.86101H21.4327ZM18.9997 6.00101L8.0317 13.152L9.76671 14.812L18.9997 6.00101Z" fill="white"/>
</svg>
