<svg width="48" height="46" viewBox="0 0 48 46" fill="none" xmlns="http://www.w3.org/2000/svg">
<path d="M22.2748 2.94128C23.0476 1.62374 24.9524 1.62374 25.7252 2.94128L31.7131 13.1505C31.9966 13.6339 32.4699 13.9762 33.0178 14.094L44.6239 16.5898C46.1268 16.9129 46.7184 18.7401 45.6902 19.8828L37.7928 28.6599C37.4153 29.0794 37.2326 29.639 37.2899 30.2005L38.4853 41.9245C38.6406 43.4478 37.0965 44.5735 35.6938 43.9596L24.8018 39.1933C24.2907 38.9696 23.7093 38.9696 23.1982 39.1933L12.3062 43.9596C10.9035 44.5735 9.35942 43.4478 9.51473 41.9245L10.7101 30.2005C10.7673 29.639 10.5847 29.0794 10.2072 28.6599L2.30977 19.8828C1.28159 18.7401 1.87323 16.9129 3.37606 16.5898L14.9822 14.094C15.53 13.9762 16.0034 13.6339 16.2869 13.1505L22.2748 2.94128Z" fill="current"/>
</svg>
