<svg width="33" height="33" viewBox="0 0 33 33" fill="none" xmlns="http://www.w3.org/2000/svg">
<g clip-path="url(#clip0_247_455)">
<path d="M15.8033 12.6362C16.1534 12.8696 16.5034 13.103 16.8641 13.3434C17.1558 13.11 17.4475 12.8767 17.7481 12.6362C18.0173 13.3976 18.2099 14.148 18.369 14.9395C18.3932 15.0589 18.4174 15.1783 18.4423 15.3014C18.5215 15.693 18.5996 16.0849 18.6776 16.4767C18.7326 16.7505 18.7876 17.0244 18.8426 17.2982C18.9575 17.8707 19.0718 18.4433 19.1858 19.0159C19.3318 19.7489 19.4792 20.4816 19.627 21.2143C19.7407 21.7791 19.8537 22.3441 19.9664 22.9092C20.0204 23.1794 20.0747 23.4496 20.1292 23.7197C20.2054 24.0974 20.2804 24.4752 20.3552 24.8531C20.3981 25.0678 20.441 25.2825 20.4852 25.5037C20.5661 26.0059 20.6178 26.4503 20.5768 26.9567C20.2987 27.2814 20.2987 27.2814 19.9118 27.5782C19.7722 27.6862 19.6326 27.7943 19.4888 27.9056C19.341 28.0154 19.1932 28.1253 19.0409 28.2384C18.8965 28.351 18.7522 28.4636 18.6034 28.5796C17.3057 29.5673 17.3057 29.5673 16.5105 29.6086C16.1046 29.4043 16.1046 29.4043 15.6956 29.0907C15.5477 28.9792 15.3998 28.8678 15.2474 28.7529C15.0194 28.5748 15.0194 28.5748 14.7868 28.3931C14.5546 28.2171 14.5546 28.2171 14.3178 28.0375C13.2187 27.2008 13.2187 27.2008 12.9746 26.9567C12.9848 25.4001 13.3969 23.8352 13.7039 22.3151C13.7588 22.0406 13.8136 21.7661 13.8683 21.4916C13.9825 20.9201 14.0973 20.3488 14.2125 19.7776C14.3604 19.0442 14.5069 18.3105 14.653 17.5767C14.7657 17.0117 14.879 16.4468 14.9925 15.8819C15.0468 15.6112 15.1009 15.3404 15.1549 15.0696C15.2299 14.6933 15.3059 14.3172 15.3821 13.9411C15.4251 13.727 15.4682 13.5128 15.5125 13.2922C15.6265 12.813 15.6265 12.813 15.8033 12.6362Z" fill="white"/>
<path d="M3.64487 8.7234C3.79897 8.72323 3.95308 8.72306 4.11186 8.72289C4.43681 8.72277 4.76177 8.72309 5.08673 8.72383C5.57745 8.72477 6.06816 8.72384 6.55888 8.72271C7.32742 8.72197 8.09556 8.72866 8.86398 8.74137C9.21339 8.74622 9.56286 8.74586 9.9123 8.74468C11.0483 8.77648 11.7064 8.99618 12.5295 9.79557C12.6398 9.9126 12.7501 10.0296 12.8638 10.1502C12.9837 10.2611 13.1035 10.3719 13.227 10.4862C13.6805 10.9475 14.0225 11.3038 14.0532 11.9686C13.9654 12.4434 13.8307 12.8843 13.6815 13.3436C13.5703 13.7598 13.4599 14.1763 13.35 14.5929C13.2255 15.0348 13.1002 15.4766 12.9743 15.9182C12.9107 16.1471 12.8472 16.376 12.7837 16.605C12.7226 16.8198 12.6615 17.0346 12.5986 17.2559C12.5159 17.5487 12.5159 17.5487 12.4315 17.8474C12.2671 18.2938 12.2671 18.2938 11.9135 18.4706C11.4676 18.3284 11.4676 18.3284 10.9121 18.1012C10.7139 18.0208 10.5156 17.9405 10.3113 17.8577C10.1035 17.7719 9.89561 17.6861 9.68147 17.5977C9.47225 17.5126 9.26304 17.4275 9.04749 17.3398C8.52902 17.1286 8.01111 16.9162 7.49362 16.7027C7.49362 15.9572 7.52362 15.8689 7.9515 15.3201C8.04642 15.1963 8.14134 15.0726 8.23913 14.9451C8.33952 14.8177 8.43991 14.6903 8.54335 14.559C8.74037 14.3046 8.93721 14.05 9.13382 13.7952C9.26575 13.627 9.26575 13.627 9.40035 13.4554C9.6277 13.1676 9.6277 13.1676 9.79196 12.8132C9.67619 12.8193 9.56042 12.8255 9.44114 12.8318C6.16691 12.9289 3.38276 11.3619 0.952186 9.27727C0.893844 9.16058 0.835501 9.0439 0.775391 8.92368C1.73956 8.76149 2.66816 8.721 3.64487 8.7234Z" fill="white"/>
<path d="M27.2552 8.7535C27.8785 8.77911 28.5021 8.79018 29.1258 8.80259C30.343 8.82891 31.5593 8.87097 32.7757 8.92345C30.1344 11.5911 27.4082 12.6008 23.7591 12.9897C23.835 13.0834 23.9109 13.177 23.9891 13.2735C24.3305 13.6967 24.6691 14.1222 25.0077 14.5478C25.1272 14.6951 25.2468 14.8424 25.3699 14.9942C25.4822 15.1361 25.5944 15.278 25.71 15.4241C25.8147 15.5547 25.9193 15.6852 26.0271 15.8197C26.0954 15.936 26.1638 16.0523 26.2342 16.1721C26.0574 16.7025 26.0574 16.7025 25.6154 16.925C25.3279 17.0319 25.3279 17.0319 25.0346 17.141C24.8278 17.219 24.621 17.2971 24.4079 17.3775C24.1901 17.4574 23.9724 17.5373 23.748 17.6196C23.5296 17.7015 23.3111 17.7834 23.0861 17.8679C22.5449 18.0705 22.0032 18.2713 21.4607 18.4704C20.9498 17.1832 20.5629 15.8666 20.179 14.5367C20.1118 14.3106 20.0445 14.0846 19.9773 13.8585C19.9153 13.6439 19.8533 13.4292 19.7895 13.208C19.7327 13.0133 19.6759 12.8186 19.6173 12.618C19.4956 12.0026 19.5627 11.6457 19.8534 11.0936C21.7203 8.37643 24.2433 8.61642 27.2552 8.7535Z" fill="white"/>
<path d="M13.7381 3.1232C14.0503 3.11382 14.3627 3.11072 14.675 3.11275C14.8406 3.1109 15.0062 3.10904 15.1769 3.10713C15.5269 3.10486 15.8768 3.10533 16.2268 3.10835C16.7619 3.11136 17.2957 3.10119 17.8307 3.08996C18.171 3.08939 18.5114 3.08959 18.8518 3.09065C19.0113 3.08668 19.1708 3.08271 19.3351 3.07861C20.4147 3.10251 20.4147 3.10251 20.879 3.57278C21.2633 4.15945 21.4574 4.53783 21.4712 5.24742C21.2539 5.81879 21.0031 6.13345 20.5762 6.56993C19.9822 7.19695 19.4172 7.83143 18.8745 8.50363C18.2227 9.30904 17.5528 10.0947 16.8635 10.8683C16.116 10.3225 15.6011 9.72085 15.0513 8.98982C14.3245 8.04203 13.5714 7.14484 12.7578 6.26952C12.0843 5.51606 12.0843 5.51606 12.1121 4.89037C12.3799 3.91497 12.6694 3.22823 13.7381 3.1232Z" fill="white"/>
</g>
<defs>
<clipPath id="clip0_247_455">
<rect width="32" height="32" fill="white" transform="translate(0.775391 0.4375)"/>
</clipPath>
</defs>
</svg>
